<svg width="135" height="138" viewBox="0 0 135 138" fill="none" xmlns="http://www.w3.org/2000/svg">
<path d="M64.7956 128.998C100.254 128.998 128.998 100.254 128.998 64.7957C128.998 29.3378 100.254 0.593506 64.7956 0.593506C29.3377 0.593506 0.593445 29.3378 0.593445 64.7957C0.593445 100.254 29.3377 128.998 64.7956 128.998Z" fill="#88CBFF"/>
<path d="M111.932 97.7273C118.462 88.3997 122.294 77.0433 122.294 64.792C122.294 33.0387 96.5537 7.29834 64.8004 7.29834C53.2274 7.29834 42.453 10.7184 33.4322 16.6019" stroke="black" stroke-width="2" stroke-miterlimit="10" stroke-linecap="round"/>
<path d="M18.3113 30.9558C11.39 40.4488 7.30527 52.1437 7.30527 64.792C7.30527 96.5453 33.0457 122.286 64.7989 122.286C76.4125 122.286 87.2215 118.842 96.2619 112.92C96.3822 112.842 96.5025 112.763 96.6213 112.683" stroke="black" stroke-width="2" stroke-miterlimit="10" stroke-linecap="round"/>
<path d="M92.06 41.0001H69.37C68.88 41.0001 68.49 41.3901 68.49 41.8801C68.49 42.3701 68.88 42.7601 69.37 42.7601H91.17V47.1701H38.76V42.7601H60.56C61.05 42.7601 61.44 42.3601 61.44 41.8801C61.44 41.4001 61.05 41.0001 60.56 41.0001H37.88C37.39 41.0001 37 41.3901 37 41.8801V48.0501C37 48.5401 37.39 48.9301 37.88 48.9301H38.54V85.2701C38.54 85.7601 38.93 86.1501 39.42 86.1501H64.09V90.9001L63.94 90.9501C62.71 91.3901 61.88 92.5501 61.88 93.8601C61.88 95.5601 63.26 96.9401 64.96 96.9401C66.66 96.9401 68.04 95.5601 68.04 93.8601C68.04 92.5601 67.21 91.3901 65.98 90.9501L65.83 90.9001V86.1501H90.5C90.99 86.1501 91.38 85.7601 91.38 85.2701V48.9301H92.04C92.53 48.9301 92.92 48.5301 92.92 48.0501V41.8801C92.94 41.3901 92.54 41.0001 92.06 41.0001ZM66.29 93.8501C66.29 94.5801 65.7 95.1701 64.97 95.1701C64.24 95.1701 63.65 94.5801 63.65 93.8501C63.65 93.1201 64.24 92.5301 64.97 92.5301C65.7 92.5301 66.29 93.1201 66.29 93.8501ZM89.63 84.3801H40.3V48.9301H89.63V84.3801Z" fill="black"/>
<path d="M43.83 65.3301H56.16C56.65 65.3301 57.04 64.9301 57.04 64.4501V54.2101C57.04 53.7201 56.65 53.3301 56.16 53.3301H43.83C43.34 53.3301 42.95 53.7301 42.95 54.2101V64.4501C42.95 64.9401 43.34 65.3301 43.83 65.3301ZM44.71 55.0901H55.28V63.5701H44.71V55.0901Z" fill="black"/>
<path d="M43.83 79.9801H56.16C56.65 79.9801 57.04 79.5901 57.04 79.1001V68.8601C57.04 68.3701 56.65 67.9801 56.16 67.9801H43.83C43.34 67.9801 42.95 68.3801 42.95 68.8601V79.1001C42.95 79.5801 43.34 79.9801 43.83 79.9801ZM44.71 69.7401H55.28V78.2201H44.71V69.7401Z" fill="black"/>
<path d="M73.78 65.3301H86.11C86.6 65.3301 86.99 64.9301 86.99 64.4501V54.2101C86.99 53.7201 86.6 53.3301 86.11 53.3301H73.78C73.29 53.3301 72.9 53.7301 72.9 54.2101V64.4501C72.9 64.9401 73.29 65.3301 73.78 65.3301ZM74.66 55.0901H85.23V63.5701H74.66V55.0901Z" fill="black"/>
<path d="M73.78 79.9801H86.11C86.6 79.9801 86.99 79.5901 86.99 79.1001V68.8601C86.99 68.3701 86.6 67.9801 86.11 67.9801H73.78C73.29 67.9801 72.9 68.3801 72.9 68.8601V79.1001C72.9 79.5801 73.29 79.9801 73.78 79.9801ZM74.66 69.7401H85.23V78.2201H74.66V69.7401Z" fill="black"/>
<path d="M60.58 79.9801H69.39C69.88 79.9801 70.27 79.5901 70.27 79.1001V54.2101C70.27 53.7201 69.88 53.3301 69.39 53.3301H60.58C60.09 53.3301 59.7 53.7301 59.7 54.2101V79.1001C59.7 79.5801 60.09 79.9801 60.58 79.9801ZM61.46 55.0901H68.51V78.2101H61.46V55.0901Z" fill="black"/>
<path d="M65.59 42.5001C65.75 42.3401 65.85 42.1101 65.85 41.8801C65.85 41.6501 65.76 41.4201 65.59 41.2601C65.43 41.0901 65.2 41.0001 64.97 41.0001C64.74 41.0001 64.51 41.0901 64.35 41.2601C64.19 41.4201 64.09 41.6501 64.09 41.8801C64.09 42.1101 64.18 42.3401 64.35 42.5001C64.67 42.8301 65.26 42.8301 65.59 42.5001Z" fill="black"/>
<path d="M132.33 116.043C139.697 89.1942 94.4707 68.9153 74.3512 108.898C62.5332 132.383 122.197 152.973 132.33 116.043Z" fill="#4050A5"/>
<path d="M104.738 122.36C104.306 122.36 103.85 122.328 103.37 122.264C102.89 122.216 102.426 122.144 101.978 122.048C101.53 121.952 101.122 121.848 100.754 121.736C100.386 121.624 100.098 121.52 99.8896 121.424L100.586 118.448C101.002 118.624 101.53 118.816 102.17 119.024C102.826 119.216 103.634 119.312 104.594 119.312C105.698 119.312 106.506 119.104 107.018 118.688C107.53 118.272 107.786 117.712 107.786 117.008C107.786 116.576 107.69 116.216 107.498 115.928C107.322 115.624 107.074 115.384 106.754 115.208C106.434 115.016 106.05 114.888 105.602 114.824C105.17 114.744 104.706 114.704 104.21 114.704H102.818V111.824H104.402C104.754 111.824 105.09 111.792 105.41 111.728C105.746 111.664 106.042 111.56 106.298 111.416C106.554 111.256 106.754 111.048 106.898 110.792C107.058 110.52 107.138 110.184 107.138 109.784C107.138 109.48 107.074 109.216 106.946 108.992C106.818 108.768 106.65 108.584 106.442 108.44C106.25 108.296 106.018 108.192 105.746 108.128C105.49 108.048 105.226 108.008 104.954 108.008C104.266 108.008 103.626 108.112 103.034 108.32C102.458 108.528 101.93 108.784 101.45 109.088L100.178 106.472C100.434 106.312 100.73 106.144 101.066 105.968C101.418 105.792 101.802 105.632 102.218 105.488C102.634 105.344 103.074 105.224 103.538 105.128C104.018 105.032 104.522 104.984 105.05 104.984C106.026 104.984 106.866 105.104 107.57 105.344C108.29 105.568 108.882 105.896 109.346 106.328C109.81 106.744 110.154 107.24 110.378 107.816C110.602 108.376 110.714 108.992 110.714 109.664C110.714 110.32 110.53 110.96 110.162 111.584C109.794 112.192 109.298 112.656 108.674 112.976C109.538 113.328 110.202 113.856 110.666 114.56C111.146 115.248 111.386 116.08 111.386 117.056C111.386 117.824 111.258 118.536 111.002 119.192C110.746 119.832 110.346 120.392 109.802 120.872C109.258 121.336 108.562 121.704 107.714 121.976C106.882 122.232 105.89 122.36 104.738 122.36Z" fill="white"/>
</svg>
