<svg width="168" height="132" viewBox="0 0 168 132" fill="none" xmlns="http://www.w3.org/2000/svg">
<path d="M69.6924 2.16235C52.0749 2.16235 35.7795 7.44156 23.8114 17.0269" stroke="black" stroke-width="2" stroke-miterlimit="10" stroke-linecap="round"/>
<path d="M130.621 114.51C143.097 109.099 152.609 101.299 157.556 91.8123" stroke="black" stroke-width="0.944333" stroke-miterlimit="10" stroke-linecap="round" stroke-dasharray="0.79 0.79"/>
<path d="M136.294 25.5125C218.454 77.264 43.5198 161.792 6.79445 88.1522C-19.7063 35.0154 69.2481 -16.7186 136.294 25.5125Z" stroke="black" stroke-width="2" stroke-miterlimit="10" stroke-linecap="round"/>
<path d="M16.9098 50.0614C-38.4539 129.345 156.251 150.374 155.465 60.3962C154.944 0.433246 62.0882 -14.6368 16.9098 50.0614Z" fill="#88CBFF"/>
<path d="M19.8633 20.4885C14.2971 25.8372 10.1042 32.0623 7.3649 38.9975" stroke="black" stroke-width="2" stroke-miterlimit="10" stroke-linecap="round" stroke-dasharray="0.79 0.79"/>
<path d="M142.572 18.4564C142.572 20.2 143.985 21.6127 145.729 21.6127C147.472 21.6127 148.885 20.2 148.885 18.4564C148.885 16.7128 147.472 15.3 145.729 15.3C143.985 15.3 142.572 16.7128 142.572 18.4564Z" stroke="black" stroke-width="2" stroke-miterlimit="10" stroke-linecap="round"/>
<path d="M6.74689 107.488L6.13345 106.875" stroke="black" stroke-width="2" stroke-miterlimit="10" stroke-linecap="round"/>
<path d="M11.0394 111.779L10.426 111.166" stroke="black" stroke-width="2" stroke-miterlimit="10" stroke-linecap="round"/>
<path d="M10.426 107.488L11.0394 106.875" stroke="black" stroke-width="2" stroke-miterlimit="10" stroke-linecap="round"/>
<path d="M6.13345 111.779L6.74689 111.166" stroke="black" stroke-width="2" stroke-miterlimit="10" stroke-linecap="round"/>
<path d="M18.8042 41.3547C-40.8732 117.676 102.312 164.531 146.776 70.5943C173.577 13.969 67.908 -21.4442 18.8042 41.3547Z" stroke="black" stroke-width="2" stroke-miterlimit="10" stroke-linecap="round"/>
<path d="M53 46.3V44.44H90.21C91.24 44.44 92.07 45.27 92.07 46.3H95.79V43.51C95.79 39.91 98.71 37 102.3 37C105.89 37 108.82 39.92 108.82 43.51V60.26C108.82 63.86 105.9 66.77 102.31 66.77C98.72 66.77 95.8 63.85 95.8 60.26V48.16H92.08C92.08 49.19 91.25 50.02 90.22 50.02H53.01V48.16H85.56V46.3H53ZM106.96 43.51C106.96 40.94 104.88 38.86 102.31 38.86C99.74 38.86 97.66 40.94 97.66 43.51V48.16H106.96V43.51ZM97.66 60.26C97.66 62.83 99.74 64.91 102.31 64.91C104.88 64.91 106.96 62.83 106.96 60.26V50.02H97.66V60.26ZM87.42 48.16H90.21V46.3H87.42V48.16Z" fill="black"/>
<path d="M103.24 59.33H105.1V61.19H103.24V59.33Z" fill="black"/>
<path d="M99.52 59.33H101.38V61.19H99.52V59.33Z" fill="black"/>
<path d="M103.24 55.61H105.1V57.47H103.24V55.61Z" fill="black"/>
<path d="M99.52 55.61H101.38V57.47H99.52V55.61Z" fill="black"/>
<path d="M103.24 51.89H105.1V53.75H103.24V51.89Z" fill="black"/>
<path d="M99.52 51.89H101.38V53.75H99.52V51.89Z" fill="black"/>
<path d="M58.58 54.68V90.03C58.58 90.54 59 90.96 59.51 90.96H68.82C69.33 90.96 69.75 90.54 69.75 90.03V87.24C68.21 87.24 66.96 85.99 66.96 84.45V80.73H66.03C64.49 80.73 63.24 79.48 63.24 77.94V70.5C62.21 70.5 61.38 69.67 61.38 68.64V67.7C61.38 58.97 68.46 51.88 77.2 51.88C85.94 51.88 93 58.97 93 67.7V68.63C93 69.66 92.17 70.49 91.14 70.49V77.93C91.14 79.47 89.89 80.72 88.35 80.72H87.42V84.44C87.42 85.98 86.17 87.23 84.63 87.23H82.77C81.23 87.23 79.98 85.98 79.98 84.44V75.14C79.98 73.6 81.23 72.35 82.77 72.35H84.63C86.17 72.35 87.42 73.6 87.42 75.14V78.86H88.35C88.86 78.86 89.28 78.44 89.28 77.93V70.49H88.35C86.81 70.49 85.56 69.24 85.56 67.7C85.56 63.08 81.81 59.33 77.19 59.33C72.57 59.33 68.82 63.08 68.82 67.7C68.82 69.24 67.57 70.49 66.03 70.49H65.1V77.93C65.1 78.44 65.52 78.86 66.03 78.86H66.96V75.14C66.96 73.6 68.21 72.35 69.75 72.35H71.61C73.15 72.35 74.4 73.6 74.4 75.14V84.44C74.4 85.98 73.15 87.23 71.61 87.23V90.02C71.61 91.56 70.36 92.81 68.82 92.81H59.52C57.98 92.81 56.73 91.56 56.73 90.02V54.68C56.73 54.17 56.31 53.75 55.8 53.75H53.01V51.89H55.8C57.33 51.89 58.58 53.14 58.58 54.68ZM85.56 75.14C85.56 74.63 85.14 74.21 84.63 74.21H82.77C82.26 74.21 81.84 74.63 81.84 75.14V84.44C81.84 84.95 82.26 85.37 82.77 85.37H84.63C85.14 85.37 85.56 84.95 85.56 84.44V75.14ZM66.96 67.7C66.96 62.05 71.54 57.47 77.19 57.47C82.84 57.47 87.42 62.05 87.42 67.7C87.42 68.21 87.84 68.63 88.35 68.63H91.14V67.7C91.14 59.99 84.89 53.75 77.19 53.75C69.49 53.75 63.24 60 63.24 67.7V68.63H66.03C66.54 68.63 66.95 68.21 66.96 67.7ZM72.54 84.45V75.15C72.54 74.64 72.12 74.22 71.61 74.22H69.75C69.24 74.22 68.82 74.64 68.82 75.15V84.45C68.82 84.96 69.24 85.38 69.75 85.38H71.61C72.12 85.38 72.54 84.96 72.54 84.45Z" fill="black"/>
<path d="M110.404 96.6349C86.8445 130.421 165.499 148.314 165.165 109.97C164.944 84.4163 129.63 69.0633 110.404 96.6349Z" fill="#4050A5"/>
<path d="M136.836 104.344C136.212 105.16 135.548 106.048 134.844 107.008C134.14 107.968 133.548 108.952 133.068 109.96H136.836V104.344ZM140.34 99.976V109.96H142.116V112.888H140.34V116.608H136.836V112.888H129.66V110.272C130.012 109.568 130.452 108.776 130.98 107.896C131.508 107 132.092 106.088 132.732 105.16C133.388 104.216 134.076 103.296 134.796 102.4C135.516 101.504 136.236 100.696 136.956 99.976H140.34Z" fill="white"/>
</svg>
